<svg width="129" height="28" viewBox="0 0 129 28" fill="none" xmlns="http://www.w3.org/2000/svg">
<path d="M40.5759 21.1323C39.6182 21.1323 38.7614 20.9748 38.0053 20.6598C37.2619 20.3322 36.6696 19.8911 36.2286 19.3367C35.8002 18.7696 35.5607 18.1333 35.5103 17.4276H39.1016C39.152 17.7679 39.3095 18.0325 39.5741 18.2215C39.8388 18.4105 40.1664 18.505 40.557 18.505C40.8594 18.505 41.0989 18.442 41.2753 18.316C41.4517 18.19 41.5399 18.0262 41.5399 17.8246C41.5399 17.5599 41.395 17.3646 41.1052 17.2386C40.8153 17.1126 40.3365 16.974 39.6686 16.8228C38.9126 16.6716 38.2825 16.5015 37.7785 16.3125C37.2745 16.1234 36.8334 15.8147 36.4554 15.3863C36.09 14.9578 35.9073 14.3782 35.9073 13.6474C35.9073 13.0173 36.0774 12.4503 36.4176 11.9462C36.7578 11.4296 37.2556 11.0201 37.9108 10.7176C38.5787 10.4152 39.3788 10.264 40.3113 10.264C41.6974 10.264 42.7874 10.6042 43.5812 11.2847C44.3751 11.9651 44.835 12.8598 44.961 13.9687H41.6155C41.5525 13.6285 41.4013 13.3701 41.1619 13.1937C40.935 13.0047 40.6263 12.9102 40.2357 12.9102C39.9333 12.9102 39.7002 12.9669 39.5363 13.0803C39.3851 13.1937 39.3095 13.3512 39.3095 13.5528C39.3095 13.8049 39.4544 14.0002 39.7443 14.1388C40.0341 14.2648 40.5003 14.3971 41.143 14.5357C41.9116 14.6995 42.548 14.8822 43.052 15.0839C43.5686 15.2855 44.016 15.6131 44.394 16.0667C44.7846 16.5078 44.9799 17.1126 44.9799 17.8813C44.9799 18.4987 44.7972 19.0532 44.4318 19.5446C44.079 20.036 43.5686 20.4267 42.9008 20.7165C42.2455 20.9937 41.4706 21.1323 40.5759 21.1323ZM53.4357 21L50.5059 16.6527V21H46.8013V7.01296H50.5059V14.5546L53.4357 10.3963H57.8775L53.7003 15.7265L57.9531 21H53.4357ZM60.9104 9.41344C60.2552 9.41344 59.7259 9.23702 59.3227 8.8842C58.9321 8.51877 58.7368 8.06514 58.7368 7.52329C58.7368 6.96885 58.9321 6.50892 59.3227 6.14349C59.7259 5.77806 60.2552 5.59535 60.9104 5.59535C61.5531 5.59535 62.0697 5.77806 62.4604 6.14349C62.8636 6.50892 63.0652 6.96885 63.0652 7.52329C63.0652 8.06514 62.8636 8.51877 62.4604 8.8842C62.0697 9.23702 61.5531 9.41344 60.9104 9.41344ZM62.7439 10.3963V21H59.0392V10.3963H62.7439ZM71.7904 10.3018C73.0127 10.3018 73.983 10.7113 74.7012 11.5304C75.4195 12.3369 75.7786 13.4331 75.7786 14.8192V21H72.0739V15.3107C72.0739 14.7058 71.9164 14.2333 71.6014 13.8931C71.2864 13.5402 70.8642 13.3638 70.335 13.3638C69.7806 13.3638 69.3458 13.5402 69.0308 13.8931C68.7158 14.2333 68.5583 14.7058 68.5583 15.3107V21H64.8536V10.3963H68.5583V11.9084C68.8859 11.4296 69.3269 11.0453 69.8814 10.7554C70.4358 10.453 71.0722 10.3018 71.7904 10.3018ZM77.2066 15.6887C77.2066 14.5924 77.4334 13.6348 77.887 12.8157C78.3406 11.9966 78.9707 11.3666 79.7771 10.9255C80.5962 10.4845 81.5287 10.264 82.5746 10.264C83.9229 10.264 85.0569 10.6357 85.9768 11.3792C86.8967 12.11 87.4889 13.137 87.7535 14.4601H83.822C83.5952 13.7671 83.1542 13.4205 82.4989 13.4205C82.0327 13.4205 81.661 13.6158 81.3838 14.0065C81.1191 14.3845 80.9868 14.9452 80.9868 15.6887C80.9868 16.4322 81.1191 16.9992 81.3838 17.3898C81.661 17.7805 82.0327 17.9758 82.4989 17.9758C83.1668 17.9758 83.6078 17.6292 83.822 16.9362H87.7535C87.4889 18.2467 86.8967 19.2737 85.9768 20.0171C85.0569 20.7606 83.9229 21.1323 82.5746 21.1323C81.5287 21.1323 80.5962 20.9118 79.7771 20.4708C78.9707 20.0297 78.3406 19.3997 77.887 18.5806C77.4334 17.7616 77.2066 16.7976 77.2066 15.6887ZM88.6877 15.6887C88.6877 14.5924 88.883 13.6348 89.2736 12.8157C89.6769 11.9966 90.2187 11.3666 90.8991 10.9255C91.5922 10.4845 92.3609 10.264 93.2051 10.264C93.936 10.264 94.566 10.4089 95.0953 10.6987C95.6245 10.9886 96.034 11.3792 96.3239 11.8706V10.3963H100.029V21H96.3239V19.5257C96.034 20.0171 95.6182 20.4078 95.0764 20.6976C94.5471 20.9874 93.9234 21.1323 93.2051 21.1323C92.3609 21.1323 91.5922 20.9118 90.8991 20.4708C90.2187 20.0297 89.6769 19.3997 89.2736 18.5806C88.883 17.749 88.6877 16.785 88.6877 15.6887ZM96.3239 15.6887C96.3239 15.0083 96.1348 14.4727 95.7568 14.0821C95.3914 13.6915 94.9377 13.4961 94.3959 13.4961C93.8415 13.4961 93.3815 13.6915 93.0161 14.0821C92.6507 14.4601 92.468 14.9957 92.468 15.6887C92.468 16.3692 92.6507 16.911 93.0161 17.3142C93.3815 17.7049 93.8415 17.9002 94.3959 17.9002C94.9377 17.9002 95.3914 17.7049 95.7568 17.3142C96.1348 16.9236 96.3239 16.3818 96.3239 15.6887ZM105.844 12.2675C106.26 11.6627 106.764 11.1839 107.356 10.831C107.949 10.4782 108.585 10.3018 109.265 10.3018V14.2522H108.226C107.419 14.2522 106.821 14.4097 106.43 14.7247C106.04 15.0398 105.844 15.5879 105.844 16.3692V21H102.14V10.3963H105.844V12.2675ZM120.725 15.5753C120.725 15.8651 120.706 16.1549 120.668 16.4448H113.656C113.693 17.0244 113.851 17.4591 114.128 17.749C114.418 18.0262 114.783 18.1648 115.224 18.1648C115.842 18.1648 116.283 17.8876 116.547 17.3331H120.498C120.334 18.064 120.013 18.7192 119.534 19.2989C119.068 19.8659 118.475 20.3132 117.757 20.6409C117.039 20.9685 116.245 21.1323 115.376 21.1323C114.33 21.1323 113.397 20.9118 112.578 20.4708C111.772 20.0297 111.135 19.3997 110.669 18.5806C110.216 17.7616 109.989 16.7976 109.989 15.6887C109.989 14.5798 110.216 13.6221 110.669 12.8157C111.123 11.9966 111.753 11.3666 112.559 10.9255C113.378 10.4845 114.317 10.264 115.376 10.264C116.421 10.264 117.348 10.4782 118.154 10.9066C118.961 11.3351 119.591 11.9525 120.044 12.759C120.498 13.5528 120.725 14.4916 120.725 15.5753ZM116.944 14.6491C116.944 14.1955 116.793 13.8427 116.491 13.5906C116.188 13.326 115.81 13.1937 115.357 13.1937C114.903 13.1937 114.531 13.3197 114.242 13.5717C113.952 13.8112 113.763 14.1703 113.674 14.6491H116.944Z" fill="#323B5C"/>
<path d="M10.9324 8.82825H17.916L14.4242 3.55492L10.9324 8.82825Z" fill="#00BC96"/>
<path d="M15.44 2.02087L19.3906 7.9872L22.3536 2.02087H15.44Z" fill="#00BC96"/>
<path d="M18.3748 10.5301H10.4737L14.4242 24.4512L18.3748 10.5301Z" fill="#00BC96"/>
<path d="M7.98568 8.82825L4.9816 2.77916L0 8.82825H7.98568Z" fill="#00BC96"/>
<path d="M20.1327 10.5301L15.5648 26.6269L28.8338 10.5301H20.1327Z" fill="#00BC96"/>
<path d="M9.45785 7.98714L13.4085 2.02087H6.49491L9.45785 7.98714Z" fill="#00BC96"/>
<path d="M20.8628 8.82825H28.8485L23.8669 2.77916L20.8628 8.82825Z" fill="#00BC96"/>
<path d="M8.71574 10.5301H0.0146496L13.2837 26.6269L8.71574 10.5301Z" fill="#00BC96"/>
</svg>
