<svg width="203" height="33" viewBox="0 0 203 33" fill="none" xmlns="http://www.w3.org/2000/svg">
<rect width="202.569" height="33" rx="5" fill="#39539D"/>
<path d="M20.0075 17.4995L20.452 14.604H17.6735V12.725C17.6735 11.933 18.0615 11.1605 19.306 11.1605H20.569V8.6955C20.569 8.6955 19.423 8.5 18.327 8.5C16.039 8.5 14.5435 9.887 14.5435 12.3975V14.6045H12V17.5H14.5435V24.5H17.6735V17.5L20.0075 17.4995Z" fill="white"/>
<path d="M33.8471 11.76C34.8831 11.76 35.6998 12.012 36.2971 12.516C36.9038 13.02 37.2071 13.6967 37.2071 14.546C37.2071 15.2273 37.0344 15.792 36.6891 16.24C36.3531 16.6787 35.8771 16.9867 35.2611 17.164L37.7531 21H35.5831L33.4131 17.458H31.6771V21H29.7731V11.76H33.8471ZM33.6231 15.988C34.6964 15.988 35.2331 15.54 35.2331 14.644C35.2331 13.748 34.6964 13.3 33.6231 13.3H31.6771V15.988H33.6231ZM42.1903 21.14C41.089 21.14 40.207 20.8227 39.5443 20.188C38.8817 19.544 38.5503 18.648 38.5503 17.5C38.5503 16.7347 38.6997 16.0813 38.9983 15.54C39.297 14.9987 39.7123 14.5833 40.2443 14.294C40.7857 14.0047 41.4017 13.86 42.0923 13.86C42.8017 13.86 43.4037 14.0047 43.8983 14.294C44.393 14.574 44.771 14.9613 45.0323 15.456C45.2937 15.9413 45.4243 16.4967 45.4243 17.122C45.4243 17.3087 45.4197 17.486 45.4103 17.654C45.401 17.822 45.387 17.9713 45.3683 18.102H40.4263C40.501 18.6433 40.6877 19.0493 40.9863 19.32C41.2943 19.5813 41.691 19.712 42.1763 19.712C42.587 19.712 42.9183 19.6327 43.1703 19.474C43.4223 19.3153 43.6183 19.096 43.7583 18.816L45.2843 19.404C45.0603 19.9547 44.6683 20.384 44.1083 20.692C43.5483 20.9907 42.909 21.14 42.1903 21.14ZM42.0783 15.274C41.173 15.274 40.627 15.7733 40.4403 16.772H43.5903C43.5343 16.2867 43.3757 15.918 43.1143 15.666C42.8623 15.4047 42.517 15.274 42.0783 15.274ZM51.2077 19.684C51.9637 19.684 52.5471 19.8473 52.9577 20.174C53.3684 20.5007 53.5737 20.958 53.5737 21.546C53.5737 22.0873 53.4197 22.54 53.1117 22.904C52.8037 23.268 52.3697 23.5433 51.8097 23.73C51.2591 23.9167 50.6197 24.01 49.8917 24.01C48.6877 24.01 47.8057 23.842 47.2457 23.506C46.6951 23.17 46.4197 22.7313 46.4197 22.19C46.4197 21.8727 46.5177 21.5927 46.7137 21.35C46.9191 21.1167 47.2457 20.9533 47.6937 20.86C47.0684 20.6267 46.7557 20.188 46.7557 19.544C46.7557 19.2267 46.8491 18.9467 47.0357 18.704C47.2317 18.4613 47.4977 18.2793 47.8337 18.158C47.0964 17.7473 46.7277 17.108 46.7277 16.24C46.7277 15.5027 47.0124 14.924 47.5817 14.504C48.1511 14.0747 48.9304 13.86 49.9197 13.86C50.4797 13.86 50.9837 13.9347 51.4317 14.084C51.4971 13.5987 51.6931 13.188 52.0197 12.852C52.3464 12.5067 52.7897 12.334 53.3497 12.334C53.3684 12.334 53.3917 12.334 53.4197 12.334C53.4477 12.334 53.4757 12.334 53.5037 12.334L53.7277 13.706C53.6531 13.6967 53.5691 13.692 53.4757 13.692C53.1211 13.692 52.8364 13.762 52.6217 13.902C52.4071 14.0327 52.2717 14.224 52.2157 14.476C52.8131 14.896 53.1117 15.484 53.1117 16.24C53.1117 16.968 52.8224 17.5467 52.2437 17.976C51.6744 18.396 50.8997 18.606 49.9197 18.606C49.4904 18.606 49.0984 18.5687 48.7437 18.494C48.5291 18.55 48.3751 18.634 48.2817 18.746C48.1977 18.8487 48.1557 18.9653 48.1557 19.096C48.1557 19.488 48.4544 19.684 49.0517 19.684H51.2077ZM49.9197 15.064C49.5464 15.064 49.2384 15.1667 48.9957 15.372C48.7531 15.5773 48.6317 15.862 48.6317 16.226C48.6317 16.59 48.7531 16.8793 48.9957 17.094C49.2384 17.2993 49.5464 17.402 49.9197 17.402C50.2837 17.402 50.5871 17.2993 50.8297 17.094C51.0724 16.8793 51.1937 16.59 51.1937 16.226C51.1937 15.862 51.0724 15.5773 50.8297 15.372C50.5871 15.1667 50.2837 15.064 49.9197 15.064ZM49.9057 22.694C50.6244 22.694 51.1564 22.6053 51.5017 22.428C51.8564 22.26 52.0337 22.0547 52.0337 21.812C52.0337 21.6347 51.9637 21.49 51.8237 21.378C51.6837 21.2753 51.4317 21.224 51.0677 21.224H48.7017C48.4777 21.224 48.2911 21.28 48.1417 21.392C48.0017 21.5133 47.9317 21.6673 47.9317 21.854C47.9317 22.1153 48.1044 22.3207 48.4497 22.47C48.8044 22.6193 49.2897 22.694 49.9057 22.694ZM55.6993 12.992C54.906 12.992 54.5093 12.6513 54.5093 11.97C54.5093 11.2793 54.906 10.934 55.6993 10.934C56.4927 10.934 56.8893 11.2793 56.8893 11.97C56.8893 12.6513 56.4927 12.992 55.6993 12.992ZM56.6513 14V21H54.7333V14H56.6513ZM61.4845 21.14C60.7752 21.14 60.1265 21.014 59.5385 20.762C58.9598 20.51 58.4885 20.1553 58.1245 19.698L59.2305 18.578C59.4545 18.914 59.7532 19.1893 60.1265 19.404C60.4998 19.6187 60.9432 19.726 61.4565 19.726C61.8205 19.726 62.1098 19.6747 62.3245 19.572C62.5485 19.46 62.6605 19.2873 62.6605 19.054C62.6605 18.9047 62.6092 18.7787 62.5065 18.676C62.4038 18.564 62.1985 18.4753 61.8905 18.41L60.6585 18.158C59.8465 17.99 59.2678 17.738 58.9225 17.402C58.5865 17.0567 58.4185 16.6133 58.4185 16.072C58.4185 15.6893 58.5305 15.33 58.7545 14.994C58.9878 14.658 59.3332 14.3873 59.7905 14.182C60.2478 13.9673 60.8172 13.86 61.4985 13.86C62.9172 13.86 63.9345 14.294 64.5505 15.162L63.4025 16.282C63.1972 15.9553 62.9265 15.708 62.5905 15.54C62.2638 15.3627 61.9185 15.274 61.5545 15.274C60.7332 15.274 60.3225 15.5027 60.3225 15.96C60.3225 16.1093 60.3878 16.24 60.5185 16.352C60.6492 16.4547 60.8872 16.5433 61.2325 16.618L62.6605 16.912C63.3512 17.052 63.8458 17.29 64.1445 17.626C64.4432 17.9527 64.5925 18.3493 64.5925 18.816C64.5925 19.488 64.3218 20.0433 63.7805 20.482C63.2485 20.9207 62.4832 21.14 61.4845 21.14ZM70.84 14V15.428H68.6V18.718C68.6 19.054 68.684 19.3013 68.852 19.46C69.0293 19.6093 69.2673 19.684 69.566 19.684C69.8087 19.684 70.014 19.6513 70.182 19.586C70.3593 19.5113 70.518 19.4133 70.658 19.292L70.966 20.566C70.7327 20.7433 70.448 20.8833 70.112 20.986C69.7853 21.0887 69.4353 21.14 69.062 21.14C68.362 21.14 67.788 20.9813 67.34 20.664C66.9013 20.3373 66.682 19.7913 66.682 19.026V15.428H65.394V14H66.682V12.39L68.6 11.858V14H70.84ZM75.3856 21.14C74.2843 21.14 73.4023 20.8227 72.7396 20.188C72.077 19.544 71.7456 18.648 71.7456 17.5C71.7456 16.7347 71.895 16.0813 72.1936 15.54C72.4923 14.9987 72.9076 14.5833 73.4396 14.294C73.981 14.0047 74.597 13.86 75.2876 13.86C75.997 13.86 76.599 14.0047 77.0936 14.294C77.5883 14.574 77.9663 14.9613 78.2276 15.456C78.489 15.9413 78.6196 16.4967 78.6196 17.122C78.6196 17.3087 78.615 17.486 78.6056 17.654C78.5963 17.822 78.5823 17.9713 78.5636 18.102H73.6216C73.6963 18.6433 73.883 19.0493 74.1816 19.32C74.4896 19.5813 74.8863 19.712 75.3716 19.712C75.7823 19.712 76.1136 19.6327 76.3656 19.474C76.6176 19.3153 76.8136 19.096 76.9536 18.816L78.4796 19.404C78.2556 19.9547 77.8636 20.384 77.3036 20.692C76.7436 20.9907 76.1043 21.14 75.3856 21.14ZM75.2736 15.274C74.3683 15.274 73.8223 15.7733 73.6356 16.772H76.7856C76.7296 16.2867 76.571 15.918 76.3096 15.666C76.0576 15.4047 75.7123 15.274 75.2736 15.274ZM80.2451 21V14H81.9111L82.0371 15.372C82.2144 14.896 82.4804 14.5273 82.8351 14.266C83.1991 13.9953 83.6564 13.86 84.2071 13.86C84.5337 13.86 84.7857 13.9113 84.9631 14.014L84.7391 15.624C84.6457 15.596 84.5291 15.5727 84.3891 15.554C84.2584 15.526 84.0857 15.512 83.8711 15.512C83.5817 15.512 83.3064 15.582 83.0451 15.722C82.7931 15.8527 82.5831 16.058 82.4151 16.338C82.2471 16.6087 82.1631 16.954 82.1631 17.374V21H80.2451ZM98.9137 14H100.958L98.7177 21H96.5057L94.9797 16.24L93.5097 21H91.2977L89.0577 14H91.1017L92.5017 19.362L94.0557 14H95.9597L97.5277 19.362L98.9137 14ZM103.113 12.992C102.32 12.992 101.923 12.6513 101.923 11.97C101.923 11.2793 102.32 10.934 103.113 10.934C103.907 10.934 104.303 11.2793 104.303 11.97C104.303 12.6513 103.907 12.992 103.113 12.992ZM104.065 14V21H102.147V14H104.065ZM110.817 14V15.428H108.577V18.718C108.577 19.054 108.661 19.3013 108.829 19.46C109.006 19.6093 109.244 19.684 109.543 19.684C109.785 19.684 109.991 19.6513 110.159 19.586C110.336 19.5113 110.495 19.4133 110.635 19.292L110.943 20.566C110.709 20.7433 110.425 20.8833 110.089 20.986C109.762 21.0887 109.412 21.14 109.039 21.14C108.339 21.14 107.765 20.9813 107.317 20.664C106.878 20.3373 106.659 19.7913 106.659 19.026V15.428H105.371V14H106.659V12.39L108.577 11.858V14H110.817ZM112.224 21V10.934H114.142V15.19C114.366 14.742 114.674 14.4107 115.066 14.196C115.458 13.972 115.901 13.86 116.396 13.86C117.124 13.86 117.726 14.0747 118.202 14.504C118.678 14.924 118.916 15.5587 118.916 16.408V21H116.998V16.968C116.998 16.3613 116.881 15.946 116.648 15.722C116.414 15.4887 116.116 15.372 115.752 15.372C115.481 15.372 115.224 15.4373 114.982 15.568C114.739 15.6893 114.538 15.8947 114.38 16.184C114.221 16.464 114.142 16.8373 114.142 17.304V21H112.224ZM132.283 13.314H127.299V15.652H131.233V17.22H127.299V21H125.367V11.76H132.283V13.314ZM137.063 16.534C137.063 16.1327 136.947 15.82 136.713 15.596C136.489 15.372 136.191 15.26 135.817 15.26C135.472 15.26 135.169 15.3487 134.907 15.526C134.646 15.7033 134.455 15.9973 134.333 16.408L132.695 15.904C132.854 15.288 133.199 14.7933 133.731 14.42C134.273 14.0467 134.996 13.86 135.901 13.86C136.816 13.86 137.553 14.0793 138.113 14.518C138.683 14.9473 138.967 15.5913 138.967 16.45V19.292C138.967 19.6467 139.135 19.824 139.471 19.824C139.63 19.824 139.779 19.8007 139.919 19.754L139.807 20.944C139.565 21.0653 139.261 21.126 138.897 21.126C138.496 21.126 138.146 21.042 137.847 20.874C137.558 20.706 137.362 20.454 137.259 20.118C137.035 20.454 136.713 20.7107 136.293 20.888C135.883 21.056 135.458 21.14 135.019 21.14C134.31 21.14 133.745 20.9813 133.325 20.664C132.915 20.3373 132.709 19.866 132.709 19.25C132.709 18.7273 132.877 18.3027 133.213 17.976C133.549 17.64 134.03 17.4113 134.655 17.29L137.063 16.8V16.534ZM134.627 19.068C134.627 19.3013 134.711 19.4787 134.879 19.6C135.057 19.7213 135.267 19.782 135.509 19.782C135.78 19.782 136.032 19.74 136.265 19.656C136.499 19.572 136.69 19.432 136.839 19.236C136.989 19.0307 137.063 18.76 137.063 18.424V17.99L135.593 18.284C135.276 18.3493 135.033 18.438 134.865 18.55C134.707 18.6527 134.627 18.8253 134.627 19.068ZM144.263 13.86C145.196 13.86 145.92 14.0607 146.433 14.462C146.956 14.8633 147.301 15.3487 147.469 15.918L145.677 16.562C145.49 15.7127 145.028 15.288 144.291 15.288C143.759 15.288 143.344 15.4747 143.045 15.848C142.756 16.2213 142.611 16.7767 142.611 17.514C142.611 18.2607 142.76 18.816 143.059 19.18C143.367 19.5347 143.782 19.712 144.305 19.712C145.117 19.712 145.602 19.2967 145.761 18.466L147.497 19.026C147.338 19.6513 146.984 20.16 146.433 20.552C145.892 20.944 145.187 21.14 144.319 21.14C143.591 21.14 142.952 20.9953 142.401 20.706C141.86 20.4167 141.44 20.0013 141.141 19.46C140.842 18.9187 140.693 18.2653 140.693 17.5C140.693 16.7347 140.842 16.0813 141.141 15.54C141.449 14.9987 141.869 14.5833 142.401 14.294C142.942 14.0047 143.563 13.86 144.263 13.86ZM152.235 21.14C151.134 21.14 150.252 20.8227 149.589 20.188C148.927 19.544 148.595 18.648 148.595 17.5C148.595 16.7347 148.745 16.0813 149.043 15.54C149.342 14.9987 149.757 14.5833 150.289 14.294C150.831 14.0047 151.447 13.86 152.137 13.86C152.847 13.86 153.449 14.0047 153.943 14.294C154.438 14.574 154.816 14.9613 155.077 15.456C155.339 15.9413 155.469 16.4967 155.469 17.122C155.469 17.3087 155.465 17.486 155.455 17.654C155.446 17.822 155.432 17.9713 155.413 18.102H150.471C150.546 18.6433 150.733 19.0493 151.031 19.32C151.339 19.5813 151.736 19.712 152.221 19.712C152.632 19.712 152.963 19.6327 153.215 19.474C153.467 19.3153 153.663 19.096 153.803 18.816L155.329 19.404C155.105 19.9547 154.713 20.384 154.153 20.692C153.593 20.9907 152.954 21.14 152.235 21.14ZM152.123 15.274C151.218 15.274 150.672 15.7733 150.485 16.772H153.635C153.579 16.2867 153.421 15.918 153.159 15.666C152.907 15.4047 152.562 15.274 152.123 15.274ZM161.211 21.14C160.651 21.14 160.165 20.9953 159.755 20.706C159.353 20.4073 159.055 20.02 158.859 19.544L158.789 21H157.095V10.934H159.013V15.19C159.218 14.798 159.507 14.4807 159.881 14.238C160.263 13.986 160.725 13.86 161.267 13.86C161.827 13.86 162.326 14.0047 162.765 14.294C163.213 14.5833 163.563 15.0033 163.815 15.554C164.076 16.0953 164.207 16.7487 164.207 17.514C164.207 18.2793 164.076 18.9327 163.815 19.474C163.563 20.006 163.208 20.4167 162.751 20.706C162.303 20.9953 161.789 21.14 161.211 21.14ZM160.637 19.67C161.159 19.67 161.565 19.488 161.855 19.124C162.144 18.7507 162.289 18.2093 162.289 17.5C162.289 16.7907 162.144 16.254 161.855 15.89C161.565 15.5167 161.164 15.33 160.651 15.33C160.156 15.33 159.759 15.5307 159.461 15.932C159.162 16.324 159.013 16.8513 159.013 17.514C159.013 18.1953 159.162 18.7273 159.461 19.11C159.759 19.4833 160.151 19.67 160.637 19.67ZM169.064 13.86C169.764 13.86 170.385 14.0047 170.926 14.294C171.467 14.5833 171.887 14.9987 172.186 15.54C172.494 16.0813 172.648 16.7347 172.648 17.5C172.648 18.2653 172.494 18.9187 172.186 19.46C171.887 20.0013 171.467 20.4167 170.926 20.706C170.385 20.9953 169.764 21.14 169.064 21.14C168.355 21.14 167.729 20.9953 167.188 20.706C166.656 20.4167 166.236 20.0013 165.928 19.46C165.629 18.9187 165.48 18.2653 165.48 17.5C165.48 16.7347 165.629 16.0813 165.928 15.54C166.236 14.9987 166.656 14.5833 167.188 14.294C167.729 14.0047 168.355 13.86 169.064 13.86ZM169.064 15.288C168.541 15.288 168.131 15.4747 167.832 15.848C167.543 16.212 167.398 16.7627 167.398 17.5C167.398 18.2373 167.543 18.7927 167.832 19.166C168.131 19.53 168.541 19.712 169.064 19.712C169.577 19.712 169.979 19.53 170.268 19.166C170.567 18.7927 170.716 18.2373 170.716 17.5C170.716 16.7627 170.567 16.212 170.268 15.848C169.979 15.4747 169.577 15.288 169.064 15.288ZM177.445 13.86C178.145 13.86 178.766 14.0047 179.307 14.294C179.848 14.5833 180.268 14.9987 180.567 15.54C180.875 16.0813 181.029 16.7347 181.029 17.5C181.029 18.2653 180.875 18.9187 180.567 19.46C180.268 20.0013 179.848 20.4167 179.307 20.706C178.766 20.9953 178.145 21.14 177.445 21.14C176.736 21.14 176.11 20.9953 175.569 20.706C175.037 20.4167 174.617 20.0013 174.309 19.46C174.01 18.9187 173.861 18.2653 173.861 17.5C173.861 16.7347 174.01 16.0813 174.309 15.54C174.617 14.9987 175.037 14.5833 175.569 14.294C176.11 14.0047 176.736 13.86 177.445 13.86ZM177.445 15.288C176.922 15.288 176.512 15.4747 176.213 15.848C175.924 16.212 175.779 16.7627 175.779 17.5C175.779 18.2373 175.924 18.7927 176.213 19.166C176.512 19.53 176.922 19.712 177.445 19.712C177.958 19.712 178.36 19.53 178.649 19.166C178.948 18.7927 179.097 18.2373 179.097 17.5C179.097 16.7627 178.948 16.212 178.649 15.848C178.36 15.4747 177.958 15.288 177.445 15.288ZM184.552 10.934V17.192L187.576 14H189.76L187.128 16.744L189.928 21H187.758L185.826 17.906L184.552 19.264V21H182.634V10.934H184.552Z" fill="white"/>
</svg>
