<svg width="191" height="33" viewBox="0 0 191 33" fill="none" xmlns="http://www.w3.org/2000/svg">
<rect width="191" height="33" rx="5" fill="#E3371B"/>
<path d="M27.8149 15.0449H20.1856V18.1351H24.5761C24.1674 20.0988 22.4569 21.2271 20.1856 21.2271C19.55 21.2281 18.9205 21.1066 18.3331 20.8693C17.7458 20.6321 17.2121 20.2839 16.7627 19.8446C16.3134 19.4053 15.9572 18.8837 15.7145 18.3096C15.4719 17.7355 15.3476 17.1202 15.3488 16.4991C15.3477 15.878 15.4721 15.2629 15.7148 14.6889C15.9575 14.1149 16.3137 13.5933 16.763 13.1542C17.2124 12.715 17.746 12.3669 18.3333 12.1297C18.9206 11.8925 19.5501 11.771 20.1856 11.772C21.3391 11.772 22.3817 12.1723 23.1999 12.8269L25.5821 10.4996C24.1308 9.26296 22.27 8.50003 20.1856 8.50003C19.1097 8.49696 18.0439 8.70179 17.0494 9.10274C16.0548 9.50368 15.1512 10.0928 14.3905 10.8363C13.6298 11.5798 13.027 12.4629 12.6167 13.4349C12.2065 14.4069 11.9969 15.4486 12 16.5C11.9968 17.5515 12.2063 18.5932 12.6165 19.5652C13.0267 20.5373 13.6295 21.4204 14.3902 22.1639C15.151 22.9074 16.0546 23.4966 17.0492 23.8975C18.0438 24.2984 19.1097 24.5032 20.1856 24.5C24.2783 24.5 28 21.5906 28 16.5C28 16.0272 27.9258 15.5177 27.8149 15.0449Z" fill="white"/>
<path d="M41.278 11.76C42.314 11.76 43.1307 12.012 43.728 12.516C44.3347 13.02 44.638 13.6967 44.638 14.546C44.638 15.2273 44.4653 15.792 44.12 16.24C43.784 16.6787 43.308 16.9867 42.692 17.164L45.184 21H43.014L40.844 17.458H39.108V21H37.204V11.76H41.278ZM41.054 15.988C42.1273 15.988 42.664 15.54 42.664 14.644C42.664 13.748 42.1273 13.3 41.054 13.3H39.108V15.988H41.054ZM49.6212 21.14C48.5199 21.14 47.6379 20.8227 46.9752 20.188C46.3126 19.544 45.9812 18.648 45.9812 17.5C45.9812 16.7347 46.1306 16.0813 46.4292 15.54C46.7279 14.9987 47.1432 14.5833 47.6752 14.294C48.2166 14.0047 48.8326 13.86 49.5232 13.86C50.2326 13.86 50.8346 14.0047 51.3292 14.294C51.8239 14.574 52.2019 14.9613 52.4632 15.456C52.7246 15.9413 52.8552 16.4967 52.8552 17.122C52.8552 17.3087 52.8506 17.486 52.8412 17.654C52.8319 17.822 52.8179 17.9713 52.7992 18.102H47.8572C47.9319 18.6433 48.1186 19.0493 48.4172 19.32C48.7252 19.5813 49.1219 19.712 49.6072 19.712C50.0179 19.712 50.3492 19.6327 50.6012 19.474C50.8532 19.3153 51.0492 19.096 51.1892 18.816L52.7152 19.404C52.4912 19.9547 52.0992 20.384 51.5392 20.692C50.9792 20.9907 50.3399 21.14 49.6212 21.14ZM49.5092 15.274C48.6039 15.274 48.0579 15.7733 47.8712 16.772H51.0212C50.9652 16.2867 50.8066 15.918 50.5452 15.666C50.2932 15.4047 49.9479 15.274 49.5092 15.274ZM58.6387 19.684C59.3947 19.684 59.978 19.8473 60.3887 20.174C60.7993 20.5007 61.0047 20.958 61.0047 21.546C61.0047 22.0873 60.8507 22.54 60.5427 22.904C60.2347 23.268 59.8007 23.5433 59.2407 23.73C58.69 23.9167 58.0507 24.01 57.3227 24.01C56.1187 24.01 55.2367 23.842 54.6767 23.506C54.126 23.17 53.8507 22.7313 53.8507 22.19C53.8507 21.8727 53.9487 21.5927 54.1447 21.35C54.35 21.1167 54.6767 20.9533 55.1247 20.86C54.4993 20.6267 54.1867 20.188 54.1867 19.544C54.1867 19.2267 54.28 18.9467 54.4667 18.704C54.6627 18.4613 54.9287 18.2793 55.2647 18.158C54.5273 17.7473 54.1587 17.108 54.1587 16.24C54.1587 15.5027 54.4433 14.924 55.0127 14.504C55.582 14.0747 56.3613 13.86 57.3507 13.86C57.9107 13.86 58.4147 13.9347 58.8627 14.084C58.928 13.5987 59.124 13.188 59.4507 12.852C59.7773 12.5067 60.2207 12.334 60.7807 12.334C60.7993 12.334 60.8227 12.334 60.8507 12.334C60.8787 12.334 60.9067 12.334 60.9347 12.334L61.1587 13.706C61.084 13.6967 61 13.692 60.9067 13.692C60.552 13.692 60.2673 13.762 60.0527 13.902C59.838 14.0327 59.7027 14.224 59.6467 14.476C60.244 14.896 60.5427 15.484 60.5427 16.24C60.5427 16.968 60.2533 17.5467 59.6747 17.976C59.1053 18.396 58.3307 18.606 57.3507 18.606C56.9213 18.606 56.5293 18.5687 56.1747 18.494C55.96 18.55 55.806 18.634 55.7127 18.746C55.6287 18.8487 55.5867 18.9653 55.5867 19.096C55.5867 19.488 55.8853 19.684 56.4827 19.684H58.6387ZM57.3507 15.064C56.9773 15.064 56.6693 15.1667 56.4267 15.372C56.184 15.5773 56.0627 15.862 56.0627 16.226C56.0627 16.59 56.184 16.8793 56.4267 17.094C56.6693 17.2993 56.9773 17.402 57.3507 17.402C57.7147 17.402 58.018 17.2993 58.2607 17.094C58.5033 16.8793 58.6247 16.59 58.6247 16.226C58.6247 15.862 58.5033 15.5773 58.2607 15.372C58.018 15.1667 57.7147 15.064 57.3507 15.064ZM57.3367 22.694C58.0553 22.694 58.5873 22.6053 58.9327 22.428C59.2873 22.26 59.4647 22.0547 59.4647 21.812C59.4647 21.6347 59.3947 21.49 59.2547 21.378C59.1147 21.2753 58.8627 21.224 58.4987 21.224H56.1327C55.9087 21.224 55.722 21.28 55.5727 21.392C55.4327 21.5133 55.3627 21.6673 55.3627 21.854C55.3627 22.1153 55.5353 22.3207 55.8807 22.47C56.2353 22.6193 56.7207 22.694 57.3367 22.694ZM63.1303 12.992C62.3369 12.992 61.9403 12.6513 61.9403 11.97C61.9403 11.2793 62.3369 10.934 63.1303 10.934C63.9236 10.934 64.3203 11.2793 64.3203 11.97C64.3203 12.6513 63.9236 12.992 63.1303 12.992ZM64.0823 14V21H62.1643V14H64.0823ZM68.9154 21.14C68.2061 21.14 67.5574 21.014 66.9694 20.762C66.3908 20.51 65.9194 20.1553 65.5554 19.698L66.6614 18.578C66.8854 18.914 67.1841 19.1893 67.5574 19.404C67.9308 19.6187 68.3741 19.726 68.8874 19.726C69.2514 19.726 69.5408 19.6747 69.7554 19.572C69.9794 19.46 70.0914 19.2873 70.0914 19.054C70.0914 18.9047 70.0401 18.7787 69.9374 18.676C69.8348 18.564 69.6294 18.4753 69.3214 18.41L68.0894 18.158C67.2774 17.99 66.6988 17.738 66.3534 17.402C66.0174 17.0567 65.8494 16.6133 65.8494 16.072C65.8494 15.6893 65.9614 15.33 66.1854 14.994C66.4188 14.658 66.7641 14.3873 67.2214 14.182C67.6788 13.9673 68.2481 13.86 68.9294 13.86C70.3481 13.86 71.3654 14.294 71.9814 15.162L70.8334 16.282C70.6281 15.9553 70.3574 15.708 70.0214 15.54C69.6948 15.3627 69.3494 15.274 68.9854 15.274C68.1641 15.274 67.7534 15.5027 67.7534 15.96C67.7534 16.1093 67.8188 16.24 67.9494 16.352C68.0801 16.4547 68.3181 16.5433 68.6634 16.618L70.0914 16.912C70.7821 17.052 71.2768 17.29 71.5754 17.626C71.8741 17.9527 72.0234 18.3493 72.0234 18.816C72.0234 19.488 71.7528 20.0433 71.2114 20.482C70.6794 20.9207 69.9141 21.14 68.9154 21.14ZM78.2709 14V15.428H76.0309V18.718C76.0309 19.054 76.1149 19.3013 76.2829 19.46C76.4603 19.6093 76.6983 19.684 76.9969 19.684C77.2396 19.684 77.4449 19.6513 77.6129 19.586C77.7903 19.5113 77.9489 19.4133 78.0889 19.292L78.3969 20.566C78.1636 20.7433 77.8789 20.8833 77.5429 20.986C77.2163 21.0887 76.8663 21.14 76.4929 21.14C75.7929 21.14 75.2189 20.9813 74.7709 20.664C74.3323 20.3373 74.1129 19.7913 74.1129 19.026V15.428H72.8249V14H74.1129V12.39L76.0309 11.858V14H78.2709ZM82.8165 21.14C81.7152 21.14 80.8332 20.8227 80.1705 20.188C79.5079 19.544 79.1765 18.648 79.1765 17.5C79.1765 16.7347 79.3259 16.0813 79.6245 15.54C79.9232 14.9987 80.3385 14.5833 80.8705 14.294C81.4119 14.0047 82.0279 13.86 82.7185 13.86C83.4279 13.86 84.0299 14.0047 84.5245 14.294C85.0192 14.574 85.3972 14.9613 85.6585 15.456C85.9199 15.9413 86.0505 16.4967 86.0505 17.122C86.0505 17.3087 86.0459 17.486 86.0365 17.654C86.0272 17.822 86.0132 17.9713 85.9945 18.102H81.0525C81.1272 18.6433 81.3139 19.0493 81.6125 19.32C81.9205 19.5813 82.3172 19.712 82.8025 19.712C83.2132 19.712 83.5445 19.6327 83.7965 19.474C84.0485 19.3153 84.2445 19.096 84.3845 18.816L85.9105 19.404C85.6865 19.9547 85.2945 20.384 84.7345 20.692C84.1745 20.9907 83.5352 21.14 82.8165 21.14ZM82.7045 15.274C81.7992 15.274 81.2532 15.7733 81.0665 16.772H84.2165C84.1605 16.2867 84.0019 15.918 83.7405 15.666C83.4885 15.4047 83.1432 15.274 82.7045 15.274ZM87.676 21V14H89.342L89.468 15.372C89.6453 14.896 89.9113 14.5273 90.266 14.266C90.63 13.9953 91.0873 13.86 91.638 13.86C91.9646 13.86 92.2166 13.9113 92.394 14.014L92.17 15.624C92.0766 15.596 91.96 15.5727 91.82 15.554C91.6893 15.526 91.5166 15.512 91.302 15.512C91.0126 15.512 90.7373 15.582 90.476 15.722C90.224 15.8527 90.014 16.058 89.846 16.338C89.678 16.6087 89.594 16.954 89.594 17.374V21H87.676ZM106.345 14H108.389L106.149 21H103.937L102.411 16.24L100.941 21H98.7286L96.4886 14H98.5326L99.9326 19.362L101.487 14H103.391L104.959 19.362L106.345 14ZM110.544 12.992C109.751 12.992 109.354 12.6513 109.354 11.97C109.354 11.2793 109.751 10.934 110.544 10.934C111.338 10.934 111.734 11.2793 111.734 11.97C111.734 12.6513 111.338 12.992 110.544 12.992ZM111.496 14V21H109.578V14H111.496ZM118.247 14V15.428H116.007V18.718C116.007 19.054 116.091 19.3013 116.259 19.46C116.437 19.6093 116.675 19.684 116.973 19.684C117.216 19.684 117.421 19.6513 117.589 19.586C117.767 19.5113 117.925 19.4133 118.065 19.292L118.373 20.566C118.14 20.7433 117.855 20.8833 117.519 20.986C117.193 21.0887 116.843 21.14 116.469 21.14C115.769 21.14 115.195 20.9813 114.747 20.664C114.309 20.3373 114.089 19.7913 114.089 19.026V15.428H112.801V14H114.089V12.39L116.007 11.858V14H118.247ZM119.654 21V10.934H121.572V15.19C121.796 14.742 122.104 14.4107 122.496 14.196C122.888 13.972 123.332 13.86 123.826 13.86C124.554 13.86 125.156 14.0747 125.632 14.504C126.108 14.924 126.346 15.5587 126.346 16.408V21H124.428V16.968C124.428 16.3613 124.312 15.946 124.078 15.722C123.845 15.4887 123.546 15.372 123.182 15.372C122.912 15.372 122.655 15.4373 122.412 15.568C122.17 15.6893 121.969 15.8947 121.81 16.184C121.652 16.464 121.572 16.8373 121.572 17.304V21H119.654ZM136.592 21.14C135.742 21.14 134.996 20.9533 134.352 20.58C133.717 20.2067 133.222 19.6653 132.868 18.956C132.513 18.2467 132.336 17.3927 132.336 16.394C132.336 15.4047 132.522 14.5553 132.896 13.846C133.269 13.1273 133.796 12.5767 134.478 12.194C135.159 11.8113 135.957 11.62 136.872 11.62C137.88 11.62 138.687 11.8067 139.294 12.18C139.91 12.544 140.4 13.1133 140.764 13.888L138.972 14.658C138.822 14.1633 138.566 13.7993 138.202 13.566C137.847 13.3233 137.408 13.202 136.886 13.202C136.102 13.202 135.481 13.4773 135.024 14.028C134.566 14.5787 134.338 15.3627 134.338 16.38C134.338 17.4347 134.557 18.2327 134.996 18.774C135.434 19.3153 136.083 19.586 136.942 19.586C137.567 19.586 138.085 19.4367 138.496 19.138C138.916 18.83 139.126 18.368 139.126 17.752V17.542H136.704V16.128H140.792V21H139.434L139.35 19.824C139.088 20.244 138.724 20.5707 138.258 20.804C137.791 21.028 137.236 21.14 136.592 21.14ZM145.911 13.86C146.611 13.86 147.232 14.0047 147.773 14.294C148.314 14.5833 148.734 14.9987 149.033 15.54C149.341 16.0813 149.495 16.7347 149.495 17.5C149.495 18.2653 149.341 18.9187 149.033 19.46C148.734 20.0013 148.314 20.4167 147.773 20.706C147.232 20.9953 146.611 21.14 145.911 21.14C145.202 21.14 144.576 20.9953 144.035 20.706C143.503 20.4167 143.083 20.0013 142.775 19.46C142.476 18.9187 142.327 18.2653 142.327 17.5C142.327 16.7347 142.476 16.0813 142.775 15.54C143.083 14.9987 143.503 14.5833 144.035 14.294C144.576 14.0047 145.202 13.86 145.911 13.86ZM145.911 15.288C145.388 15.288 144.978 15.4747 144.679 15.848C144.39 16.212 144.245 16.7627 144.245 17.5C144.245 18.2373 144.39 18.7927 144.679 19.166C144.978 19.53 145.388 19.712 145.911 19.712C146.424 19.712 146.826 19.53 147.115 19.166C147.414 18.7927 147.563 18.2373 147.563 17.5C147.563 16.7627 147.414 16.212 147.115 15.848C146.826 15.4747 146.424 15.288 145.911 15.288ZM154.292 13.86C154.992 13.86 155.612 14.0047 156.154 14.294C156.695 14.5833 157.115 14.9987 157.414 15.54C157.722 16.0813 157.876 16.7347 157.876 17.5C157.876 18.2653 157.722 18.9187 157.414 19.46C157.115 20.0013 156.695 20.4167 156.154 20.706C155.612 20.9953 154.992 21.14 154.292 21.14C153.582 21.14 152.957 20.9953 152.416 20.706C151.884 20.4167 151.464 20.0013 151.156 19.46C150.857 18.9187 150.708 18.2653 150.708 17.5C150.708 16.7347 150.857 16.0813 151.156 15.54C151.464 14.9987 151.884 14.5833 152.416 14.294C152.957 14.0047 153.582 13.86 154.292 13.86ZM154.292 15.288C153.769 15.288 153.358 15.4747 153.06 15.848C152.77 16.212 152.626 16.7627 152.626 17.5C152.626 18.2373 152.77 18.7927 153.06 19.166C153.358 19.53 153.769 19.712 154.292 19.712C154.805 19.712 155.206 19.53 155.496 19.166C155.794 18.7927 155.944 18.2373 155.944 17.5C155.944 16.7627 155.794 16.212 155.496 15.848C155.206 15.4747 154.805 15.288 154.292 15.288ZM163.584 19.684C164.34 19.684 164.923 19.8473 165.334 20.174C165.745 20.5007 165.95 20.958 165.95 21.546C165.95 22.0873 165.796 22.54 165.488 22.904C165.18 23.268 164.746 23.5433 164.186 23.73C163.635 23.9167 162.996 24.01 162.268 24.01C161.064 24.01 160.182 23.842 159.622 23.506C159.071 23.17 158.796 22.7313 158.796 22.19C158.796 21.8727 158.894 21.5927 159.09 21.35C159.295 21.1167 159.622 20.9533 160.07 20.86C159.445 20.6267 159.132 20.188 159.132 19.544C159.132 19.2267 159.225 18.9467 159.412 18.704C159.608 18.4613 159.874 18.2793 160.21 18.158C159.473 17.7473 159.104 17.108 159.104 16.24C159.104 15.5027 159.389 14.924 159.958 14.504C160.527 14.0747 161.307 13.86 162.296 13.86C162.856 13.86 163.36 13.9347 163.808 14.084C163.873 13.5987 164.069 13.188 164.396 12.852C164.723 12.5067 165.166 12.334 165.726 12.334C165.745 12.334 165.768 12.334 165.796 12.334C165.824 12.334 165.852 12.334 165.88 12.334L166.104 13.706C166.029 13.6967 165.945 13.692 165.852 13.692C165.497 13.692 165.213 13.762 164.998 13.902C164.783 14.0327 164.648 14.224 164.592 14.476C165.189 14.896 165.488 15.484 165.488 16.24C165.488 16.968 165.199 17.5467 164.62 17.976C164.051 18.396 163.276 18.606 162.296 18.606C161.867 18.606 161.475 18.5687 161.12 18.494C160.905 18.55 160.751 18.634 160.658 18.746C160.574 18.8487 160.532 18.9653 160.532 19.096C160.532 19.488 160.831 19.684 161.428 19.684H163.584ZM162.296 15.064C161.923 15.064 161.615 15.1667 161.372 15.372C161.129 15.5773 161.008 15.862 161.008 16.226C161.008 16.59 161.129 16.8793 161.372 17.094C161.615 17.2993 161.923 17.402 162.296 17.402C162.66 17.402 162.963 17.2993 163.206 17.094C163.449 16.8793 163.57 16.59 163.57 16.226C163.57 15.862 163.449 15.5773 163.206 15.372C162.963 15.1667 162.66 15.064 162.296 15.064ZM162.282 22.694C163.001 22.694 163.533 22.6053 163.878 22.428C164.233 22.26 164.41 22.0547 164.41 21.812C164.41 21.6347 164.34 21.49 164.2 21.378C164.06 21.2753 163.808 21.224 163.444 21.224H161.078C160.854 21.224 160.667 21.28 160.518 21.392C160.378 21.5133 160.308 21.6673 160.308 21.854C160.308 22.1153 160.481 22.3207 160.826 22.47C161.181 22.6193 161.666 22.694 162.282 22.694ZM169 10.934V18.844C169 19.1707 169.056 19.3993 169.168 19.53C169.28 19.6607 169.466 19.726 169.728 19.726C169.886 19.726 170.017 19.7167 170.12 19.698C170.222 19.6793 170.353 19.642 170.512 19.586L170.344 20.846C170.185 20.9393 169.984 21.0093 169.742 21.056C169.508 21.112 169.275 21.14 169.042 21.14C168.36 21.14 167.861 20.9767 167.544 20.65C167.236 20.314 167.082 19.782 167.082 19.054V10.934H169ZM174.828 21.14C173.727 21.14 172.845 20.8227 172.182 20.188C171.52 19.544 171.188 18.648 171.188 17.5C171.188 16.7347 171.338 16.0813 171.636 15.54C171.935 14.9987 172.35 14.5833 172.882 14.294C173.424 14.0047 174.04 13.86 174.73 13.86C175.44 13.86 176.042 14.0047 176.536 14.294C177.031 14.574 177.409 14.9613 177.67 15.456C177.932 15.9413 178.062 16.4967 178.062 17.122C178.062 17.3087 178.058 17.486 178.048 17.654C178.039 17.822 178.025 17.9713 178.006 18.102H173.064C173.139 18.6433 173.326 19.0493 173.624 19.32C173.932 19.5813 174.329 19.712 174.814 19.712C175.225 19.712 175.556 19.6327 175.808 19.474C176.06 19.3153 176.256 19.096 176.396 18.816L177.922 19.404C177.698 19.9547 177.306 20.384 176.746 20.692C176.186 20.9907 175.547 21.14 174.828 21.14ZM174.716 15.274C173.811 15.274 173.265 15.7733 173.078 16.772H176.228C176.172 16.2867 176.014 15.918 175.752 15.666C175.5 15.4047 175.155 15.274 174.716 15.274Z" fill="white"/>
</svg>
