<svg width="17" height="19" viewBox="0 0 17 19" fill="none" xmlns="http://www.w3.org/2000/svg">
<path d="M16.0116 14.4477C15.8597 14.2066 10.9746 6.45635 10.8241 6.21753V3.66406C11.6881 3.66406 12.3911 2.95436 12.3911 2.08203C12.3911 1.2097 11.6882 0.5 10.8241 0.5H5.60088C4.73686 0.5 4.03391 1.2097 4.03391 2.08203C4.03391 2.95436 4.73686 3.66406 5.60088 3.66406V6.21753L0.413383 14.4477C-0.694289 16.2051 0.553818 18.5 2.61671 18.5H13.8083C15.8715 18.5 17.1191 16.2048 16.0116 14.4477ZM6.56391 6.65421C6.61722 6.56959 6.64556 6.47139 6.64556 6.37109V3.66406C6.93402 3.66406 7.16788 3.42795 7.16788 3.13672C7.16788 2.84548 6.93402 2.60938 6.64556 2.60938H5.60092C5.31291 2.60938 5.07859 2.37281 5.07859 2.08203C5.07859 1.79125 5.31291 1.55469 5.60092 1.55469H10.8241C11.1122 1.55469 11.3465 1.79125 11.3465 2.08203C11.3465 2.37281 11.1122 2.60938 10.8241 2.60938H9.7795C9.49104 2.60938 9.25717 2.84548 9.25717 3.13672C9.25717 3.42795 9.49104 3.66406 9.7795 3.66406V6.37109C9.7795 6.47139 9.80781 6.56959 9.86115 6.65421L11.2813 8.90727C10.0658 8.64472 8.7727 8.87587 7.69425 9.60178L6.06213 10.7003C5.33815 11.1876 4.48252 11.394 3.63622 11.2992L6.56391 6.65421ZM13.8083 17.4453H2.61671C1.37881 17.4453 0.630182 16.0682 1.29472 15.0139L3.0275 12.2648C3.36266 12.3394 3.70154 12.3769 4.03896 12.3769C4.95432 12.3769 5.858 12.1053 6.64149 11.5779L8.27361 10.4793C9.47345 9.67177 11.0146 9.65096 12.2323 10.4163L15.1302 15.0139C15.7949 16.0683 15.046 17.4453 13.8083 17.4453Z" fill="#323B5C"/>
<path d="M5.07856 13.2266C4.21453 13.2266 3.51159 13.9363 3.51159 14.8086C3.51159 15.6809 4.21453 16.3906 5.07856 16.3906C5.94258 16.3906 6.64552 15.6809 6.64552 14.8086C6.64552 13.9363 5.94262 13.2266 5.07856 13.2266ZM5.07856 15.3359C4.79055 15.3359 4.55623 15.0994 4.55623 14.8086C4.55623 14.5178 4.79055 14.2812 5.07856 14.2812C5.36657 14.2812 5.60088 14.5178 5.60088 14.8086C5.60088 15.0994 5.3666 15.3359 5.07856 15.3359Z" fill="#323B5C"/>
<path d="M10.3018 11.1172C9.43776 11.1172 8.73481 11.8269 8.73481 12.6992C8.73481 13.5716 9.43776 14.2812 10.3018 14.2812C11.1658 14.2812 11.8687 13.5716 11.8687 12.6992C11.8687 11.8269 11.1658 11.1172 10.3018 11.1172ZM10.3018 13.2266C10.0138 13.2266 9.77946 12.99 9.77946 12.6992C9.77946 12.4084 10.0138 12.1719 10.3018 12.1719C10.5898 12.1719 10.8241 12.4084 10.8241 12.6992C10.8241 12.99 10.5898 13.2266 10.3018 13.2266Z" fill="#323B5C"/>
<path d="M8.21249 15.3359C8.50096 15.3359 8.73481 15.0998 8.73481 14.8086C8.73481 14.5174 8.50096 14.2812 8.21249 14.2812C7.92402 14.2812 7.69017 14.5174 7.69017 14.8086C7.69017 15.0998 7.92402 15.3359 8.21249 15.3359Z" fill="#323B5C"/>
<path d="M12.3911 15.3359C12.6795 15.3359 12.9134 15.0998 12.9134 14.8086C12.9134 14.5174 12.6795 14.2812 12.3911 14.2812C12.1026 14.2812 11.8687 14.5174 11.8687 14.8086C11.8687 15.0998 12.1026 15.3359 12.3911 15.3359Z" fill="#323B5C"/>
<path d="M10.3018 16.3906C10.5903 16.3906 10.8241 16.1545 10.8241 15.8633C10.8241 15.572 10.5903 15.3359 10.3018 15.3359C10.0133 15.3359 9.77946 15.572 9.77946 15.8633C9.77946 16.1545 10.0133 16.3906 10.3018 16.3906Z" fill="#323B5C"/>
</svg>
