<svg width="14" height="18" viewBox="0 0 14 18" fill="none" xmlns="http://www.w3.org/2000/svg">
<path d="M11.0044 16.7464V10.1958L11.2239 9.55076C11.7798 7.91549 12.0633 6.2523 12.0706 4.58474L13.7246 2.15512C13.8933 1.90465 13.9111 1.62781 13.7751 1.37056C13.6391 1.11331 13.3575 0.891124 12.977 0.740874L12.9391 0.726026C11.7353 0.252685 10.3195 0 8.87105 0C7.42261 0 6.00679 0.252685 4.80302 0.726026L4.76515 0.740874C4.38464 0.891114 4.10302 1.1133 3.96704 1.37055C3.83105 1.62781 3.84888 1.90465 4.01757 2.15512L5.67148 4.58478C5.67877 6.25233 5.96234 7.9155 6.5182 9.55076L6.73774 10.1959V16.7464C6.73774 17.0788 6.96252 17.3977 7.36262 17.6328C7.76273 17.8679 8.30538 18 8.87122 18C9.43705 18 9.97971 17.8679 10.3798 17.6328C10.7799 17.3977 11.0044 17.0788 11.0044 16.7464ZM6.56513 4.21006L5.00776 1.92218C4.92903 1.80529 4.9207 1.67608 4.98417 1.55602C5.04763 1.43596 5.17906 1.33226 5.35665 1.26215L5.39452 1.2473C6.42321 0.842823 7.6331 0.6269 8.87085 0.6269C10.1086 0.6269 11.3185 0.842823 12.3472 1.2473L12.3851 1.26215C12.5627 1.33226 12.6942 1.43595 12.7577 1.55601C12.8212 1.67606 12.8129 1.80527 12.7342 1.92218L11.1766 4.21006H10.0548L10.4606 3.0179C10.4748 2.97744 10.4752 2.93573 10.4618 2.89518C10.4485 2.85462 10.4216 2.81602 10.3828 2.78158C10.344 2.74715 10.294 2.71756 10.2356 2.69453C10.1772 2.6715 10.1117 2.65547 10.0428 2.64737C9.97386 2.63926 9.90288 2.63925 9.83393 2.64732C9.76499 2.6554 9.69945 2.6714 9.64107 2.69441C9.58269 2.71742 9.53262 2.74698 9.49376 2.7814C9.45489 2.81582 9.42798 2.85441 9.41459 2.89496L8.96729 4.21006H8.77508L8.32725 2.89496C8.31385 2.85441 8.28695 2.81582 8.24808 2.7814C8.20921 2.74698 8.15915 2.71742 8.10077 2.69441C8.04238 2.6714 7.97684 2.6554 7.9079 2.64732C7.83895 2.63925 7.76798 2.63926 7.69905 2.64737C7.63011 2.65547 7.56459 2.6715 7.50623 2.69453C7.44788 2.71756 7.39785 2.74715 7.35902 2.78158C7.3202 2.81602 7.29334 2.85462 7.27999 2.89518C7.26664 2.93573 7.26707 2.97744 7.28125 3.0179L7.6872 4.21006H6.56513ZM9.93762 16.7464C9.93762 16.9126 9.82523 17.072 9.62518 17.1896C9.42513 17.3071 9.1538 17.3732 8.87088 17.3732C8.58797 17.3732 8.31664 17.3071 8.11659 17.1896C7.91653 17.072 7.80415 16.9126 7.80415 16.7464V10.4782H9.93762V16.7464ZM10.034 9.85139H7.70801L7.56387 9.42782C7.04969 7.91564 6.77406 6.37881 6.74048 4.83687H11.0008C10.9874 5.464 10.9335 6.09082 10.8389 6.71732H9.40425C9.26279 6.71732 9.12713 6.75034 9.0271 6.80911C8.92708 6.86789 8.87088 6.94761 8.87088 7.03073C8.87088 7.11385 8.92708 7.19356 9.0271 7.25234C9.12713 7.31111 9.26279 7.34413 9.40425 7.34413H10.7317C10.5967 8.04342 10.4121 8.73799 10.1778 9.42782L10.034 9.85139Z" fill="#323B5C"/>
<path d="M3.15914 8.67723L2.11294 8.47241C1.93255 8.43708 1.74046 8.42744 1.5525 8.44429C1.36453 8.46114 1.18606 8.50399 1.03181 8.56931C0.87755 8.63463 0.751916 8.72056 0.665257 8.82C0.578597 8.91945 0.533392 9.02958 0.533367 9.1413V12.3587C0.391909 12.3587 0.256245 12.3917 0.156219 12.4505C0.0561936 12.5092 0 12.589 0 12.6721V17.6866C0 17.7697 0.0561936 17.8494 0.156219 17.9082C0.256245 17.967 0.391909 18 0.533367 18H4.80031C4.94177 18 5.07744 17.967 5.17746 17.9082C5.27749 17.8494 5.33368 17.7697 5.33368 17.6866V12.6721C5.33368 12.589 5.27749 12.5092 5.17746 12.4505C5.07744 12.3917 4.94177 12.3587 4.80031 12.3587V10.0152C4.80076 9.71916 4.64243 9.43054 4.34781 9.19034C4.0532 8.95015 3.63729 8.77061 3.15914 8.67723ZM1.6001 9.1413C1.60007 9.12888 1.60507 9.11662 1.61469 9.10556C1.62431 9.09449 1.63827 9.08493 1.65542 9.07766C1.67257 9.07038 1.69241 9.06561 1.71332 9.06374C1.73422 9.06186 1.75559 9.06294 1.77565 9.06687L2.82178 9.27176C3.08747 9.32364 3.31857 9.4234 3.48226 9.55687C3.64594 9.69034 3.73388 9.85073 3.73358 10.0152V12.3587H1.6001V9.1413ZM4.26694 17.3732H1.06674V14.2391H4.26694V17.3732ZM4.26694 13.6123H1.06674V12.9855H4.26694V13.6123Z" fill="#323B5C"/>
</svg>
