<svg width="13" height="19" viewBox="0 0 13 19" fill="none" xmlns="http://www.w3.org/2000/svg">
<path d="M6.20691 13.2241C6.08076 13.6089 5.62618 13.9505 4.93795 14.1647C3.19017 14.7086 2.10885 15.4845 1.89944 16.3276H10.5144C10.3049 15.4845 9.22366 14.7086 7.47587 14.1647C6.78765 13.9505 6.33307 13.6089 6.20691 13.2241Z" fill="#323B5C"/>
<path d="M2.48662 4.53448C3.00762 5.52681 3.84167 6.41517 4.93796 7.11616C5.27426 7.33 5.56129 7.61284 5.78004 7.94596C5.9988 8.27908 6.14429 8.65487 6.20688 9.04845C6.26947 8.65487 6.41497 8.27908 6.63372 7.94596C6.85248 7.61284 7.13951 7.33 7.4758 7.11616C8.5721 6.41517 9.40615 5.52681 9.92714 4.53448H2.48662Z" fill="#323B5C"/>
<path d="M8.14457 8.16191C10.3657 6.74181 11.7931 4.53289 11.7931 2.05172C11.9577 2.05172 12.1156 1.98633 12.232 1.86993C12.3484 1.75353 12.4138 1.59565 12.4138 1.43103V0.5H0V1.39224C7.33784e-05 1.56033 0.0643828 1.72203 0.179767 1.84426C0.295151 1.96649 0.452886 2.04 0.62069 2.04975V2.05172C0.62069 4.53289 2.04804 6.74181 4.26922 8.16191C5.24521 8.78594 5.24521 10.2141 4.26922 10.8381C2.04804 12.2582 0.62069 14.4671 0.62069 16.9483V16.9503C0.452886 16.96 0.295151 17.0335 0.179767 17.1557C0.0643828 17.278 7.33784e-05 17.4397 0 17.6078V18.5H12.4138V17.569C12.4138 17.4043 12.3484 17.2465 12.232 17.1301C12.1156 17.0137 11.9577 16.9483 11.7931 16.9483C11.7931 14.4671 10.3657 12.2582 8.14457 10.8381C7.16858 10.2141 7.16858 8.78594 8.14457 8.16191ZM6.7919 9.5C6.79089 9.87091 6.88373 10.2361 7.06177 10.5614C7.23982 10.8868 7.49729 11.1619 7.81021 11.361C9.94694 12.7271 11.1724 14.7636 11.1724 16.9483H1.24138C1.24138 14.7636 2.46685 12.7271 4.60358 11.361C4.9158 11.1611 5.17272 10.8859 5.35068 10.5607C5.52864 10.2355 5.62191 9.87072 5.62191 9.5C5.62191 9.12928 5.52864 8.76451 5.35068 8.43929C5.17272 8.11407 4.9158 7.83885 4.60358 7.63898C2.46685 6.27288 1.24138 4.23636 1.24138 2.05172H11.1724C11.1724 4.23636 9.94694 6.27288 7.81021 7.63898C7.49729 7.83811 7.23982 8.11317 7.06177 8.43856C6.88373 8.76395 6.79089 9.12909 6.7919 9.5Z" fill="#323B5C"/>
<path d="M6.2069 10.7215C6.28406 10.7215 6.35806 10.6908 6.41263 10.6363C6.46719 10.5817 6.49784 10.5077 6.49784 10.4305V10.1207C6.49784 10.0435 6.46719 9.96952 6.41263 9.91496C6.35806 9.86039 6.28406 9.82974 6.2069 9.82974C6.12973 9.82974 6.05573 9.86039 6.00116 9.91496C5.9466 9.96952 5.91595 10.0435 5.91595 10.1207V10.4305C5.91595 10.5077 5.9466 10.5817 6.00116 10.6363C6.05573 10.6908 6.12973 10.7215 6.2069 10.7215Z" fill="#323B5C"/>
<path d="M5.91595 11.9823C5.91595 12.0594 5.9466 12.1334 6.00116 12.188C6.05573 12.2425 6.12973 12.2732 6.2069 12.2732C6.28406 12.2732 6.35806 12.2425 6.41263 12.188C6.46719 12.1334 6.49784 12.0594 6.49784 11.9823V11.6724C6.49784 11.5952 6.46719 11.5212 6.41263 11.4667C6.35806 11.4121 6.28406 11.3815 6.2069 11.3815C6.12973 11.3815 6.05573 11.4121 6.00116 11.4667C5.9466 11.5212 5.91595 11.5952 5.91595 11.6724V11.9823Z" fill="#323B5C"/>
</svg>
