<svg width="17" height="19" viewBox="0 0 17 19" fill="none" xmlns="http://www.w3.org/2000/svg">
<path d="M7.87499 17.0937H2.81249C2.03709 17.0937 1.40625 16.4629 1.40625 15.6875V3.31249C1.40625 2.53709 2.03709 1.90625 2.81249 1.90625H11.457C12.2325 1.90625 12.8633 2.53709 12.8633 3.31249V9.95701C12.8633 10.3453 13.1781 10.6601 13.5664 10.6601C13.9548 10.6601 14.2695 10.3453 14.2695 9.95701V3.31249C14.2695 1.76169 13.0079 0.5 11.457 0.5H2.81249C1.26169 0.5 0 1.76169 0 3.31249V15.6875C0 17.2383 1.26169 18.5 2.81249 18.5H7.87499C8.26332 18.5 8.57811 18.1852 8.57811 17.7968C8.57811 17.4085 8.26336 17.0937 7.87499 17.0937Z" fill="#323B5C"/>
<path d="M10.7578 6.4414H6.32811C5.93978 6.4414 5.62499 6.75618 5.62499 7.14452C5.62499 7.53285 5.93978 7.84764 6.32811 7.84764H10.7578C11.1461 7.84764 11.4609 7.53285 11.4609 7.14452C11.4609 6.75618 11.1462 6.4414 10.7578 6.4414Z" fill="#323B5C"/>
<path d="M6.32811 12.0664C5.93978 12.0664 5.62499 12.3812 5.62499 12.7695C5.62499 13.1578 5.93978 13.4726 6.32811 13.4726H7.38378C7.77212 13.4726 8.08691 13.1578 8.08691 12.7695C8.08691 12.3812 7.77212 12.0664 7.38378 12.0664H6.32811Z" fill="#323B5C"/>
<path d="M10.7578 3.6289H6.32811C5.93978 3.6289 5.62499 3.94369 5.62499 4.33202C5.62499 4.72036 5.93978 5.03515 6.32811 5.03515H10.7578C11.1461 5.03515 11.4609 4.72036 11.4609 4.33202C11.4609 3.94369 11.1462 3.6289 10.7578 3.6289Z" fill="#323B5C"/>
<path d="M11.4609 9.95701C11.4609 9.56868 11.1461 9.25389 10.7578 9.25389H6.32811C5.93978 9.25389 5.62499 9.56868 5.62499 9.95701C5.62499 10.3453 5.93978 10.6601 6.32811 10.6601H10.7578C11.1462 10.6601 11.4609 10.3453 11.4609 9.95701Z" fill="#323B5C"/>
<path d="M3.58593 10.6601C3.97426 10.6601 4.28905 10.3453 4.28905 9.95701C4.28905 9.56869 3.97426 9.25389 3.58593 9.25389C3.19761 9.25389 2.88281 9.56869 2.88281 9.95701C2.88281 10.3453 3.19761 10.6601 3.58593 10.6601Z" fill="#323B5C"/>
<path d="M15.4912 12.705C15.0844 12.2932 14.5272 12.0664 13.9222 12.0664C13.3202 12.0664 12.8003 12.2578 12.4108 12.6149C12.0213 12.2578 11.5014 12.0664 10.8994 12.0664C10.2945 12.0664 9.73735 12.2932 9.33049 12.705C8.91417 13.1264 8.68492 13.719 8.68492 14.3735C8.68492 15.7527 9.8565 16.6261 10.7978 17.328C11.2259 17.6471 11.6303 17.9486 11.8631 18.2378C11.9966 18.4036 12.198 18.5 12.4108 18.5C12.6236 18.5 12.825 18.4036 12.9585 18.2378C13.1913 17.9486 13.5957 17.6471 14.0238 17.328C14.9652 16.6261 16.1367 15.7526 16.1367 14.3734C16.1367 13.719 15.9074 13.1264 15.4912 12.705ZM13.1832 16.2005C12.9215 16.3957 12.655 16.5944 12.4108 16.8042C12.1665 16.5944 11.9 16.3957 11.6383 16.2005C10.8777 15.6334 10.0911 15.047 10.0911 14.3734C10.0911 13.8178 10.4008 13.4726 10.8994 13.4726C11.3156 13.4726 11.4775 13.6439 11.5631 13.7728C11.6765 13.9433 11.7058 14.1329 11.71 14.1646C11.731 14.5366 12.0376 14.8281 12.4108 14.8281C12.784 14.8281 13.0906 14.5367 13.1115 14.1646C13.1157 14.133 13.145 13.9433 13.2584 13.7728C13.3441 13.6439 13.506 13.4726 13.9222 13.4726C14.4207 13.4726 14.7304 13.8178 14.7304 14.3734C14.7304 15.047 13.9439 15.6334 13.1832 16.2005Z" fill="#323B5C"/>
<path d="M3.58593 5.03515C3.97426 5.03515 4.28905 4.72035 4.28905 4.33202C4.28905 3.9437 3.97426 3.6289 3.58593 3.6289C3.19761 3.6289 2.88281 3.9437 2.88281 4.33202C2.88281 4.72035 3.19761 5.03515 3.58593 5.03515Z" fill="#323B5C"/>
<path d="M3.58593 7.84764C3.97426 7.84764 4.28905 7.53284 4.28905 7.14452C4.28905 6.75619 3.97426 6.4414 3.58593 6.4414C3.19761 6.4414 2.88281 6.75619 2.88281 7.14452C2.88281 7.53284 3.19761 7.84764 3.58593 7.84764Z" fill="#323B5C"/>
<path d="M3.58593 13.4726C3.97426 13.4726 4.28905 13.1578 4.28905 12.7695C4.28905 12.3812 3.97426 12.0664 3.58593 12.0664C3.19761 12.0664 2.88281 12.3812 2.88281 12.7695C2.88281 13.1578 3.19761 13.4726 3.58593 13.4726Z" fill="#323B5C"/>
</svg>
